<?xml version="1.0" encoding="ISO-8859-1" standalone="no"?>
<!DOCTYPE svg PUBLIC "-//W3C//DTD SVG 20010904//EN"
"http://www.w3.org/TR/2001/REC-SVG-20010904/DTD/svg10.dtd">
<svg xmlns="http://www.w3.org/2000/svg"
xmlns:xlink="http://www.w3.org/1999/xlink"
x="-3994.309" y="-69.273" width="13270.163" height="524.486" viewBox="-3994.309 -69.273 13270.163 524.486" >
<title>noname</title>
<defs>
</defs>
<polygon points="8775.85 -69.196 8775.771 453.251 9275.773 453.174 9275.854 -69.273 8775.85 -69.196 " fill="#00ff7f" />
<polygon points="6925.839 -68.912 6925.759 453.536 7125.76 453.505 7125.84 -68.941 6925.839 -68.912 " fill="#00ff7f" />
<polygon points="7005.84 -68.924 7005.759 453.523 7045.76 453.517 7045.84 -68.93 7005.84 -68.924 " fill="#00ff7f" />
<polygon points="7775.844 -69.042 7775.764 453.405 8275.768 453.328 8275.847 -69.119 7775.844 -69.042 " fill="#00ff7f" />
<polygon points="6775.838 -68.889 6775.758 453.559 7275.761 453.482 7275.841 -68.966 6775.838 -68.889 " fill="#00ff7f" />
<polygon points="6005.833 -68.77 6005.754 453.676 6045.754 453.671 6045.833 -68.776 6005.833 -68.77 " fill="#00ff7f" />
<polygon points="5925.833 -68.758 5925.754 453.689 6125.754 453.659 6125.833 -68.789 5925.833 -68.758 " fill="#00ff7f" />
<polygon points="-3994.23 -67.234 -3994.309 455.213 -3954.31 455.207 -3954.229 -67.24 -3994.23 -67.234 " fill="#00ff7f" />
<polygon points="-2994.223 -67.388 -2994.303 455.06 -2954.302 455.053 -2954.223 -67.394 -2994.223 -67.388 " fill="#00ff7f" />
<polygon points="-1994.217 -67.542 -1994.297 454.906 -1954.297 454.9 -1954.216 -67.548 -1994.217 -67.542 " fill="#00ff7f" />
<polygon points="-994.211 -67.695 -994.291 454.752 -954.29 454.746 -954.211 -67.701 -994.211 -67.695 " fill="#00ff7f" />
<polygon points="5.796 -67.849 5.715 454.599 45.716 454.592 45.795 -67.855 5.796 -67.849 " fill="#00ff7f" />
<polygon points="4925.826 -68.604 4925.747 453.843 5125.748 453.811 5125.828 -68.635 4925.826 -68.604 " fill="#00ff7f" />
<polygon points="3925.82 -68.451 3925.74 453.997 4125.742 453.965 4125.821 -68.481 3925.82 -68.451 " fill="#00ff7f" />
<polygon points="2925.814 -68.298 2925.734 454.151 3125.735 454.119 3125.815 -68.328 2925.814 -68.298 " fill="#00ff7f" />
<polygon points="1925.808 -68.144 1925.728 454.303 2125.729 454.272 2125.809 -68.174 1925.808 -68.144 " fill="#00ff7f" />
<polygon points="1005.802 -68.002 1005.723 454.446 1045.722 454.439 1045.803 -68.009 1005.802 -68.002 " fill="#00ff7f" />
<polygon points="5005.827 -68.617 5005.747 453.83 5045.747 453.825 5045.828 -68.623 5005.827 -68.617 " fill="#00ff7f" />
<polygon points="5775.832 -68.735 5775.752 453.712 6275.755 453.636 6275.835 -68.812 5775.832 -68.735 " fill="#00ff7f" />
</svg>
